<svg width="55" height="55" viewBox="0 0 55 55" fill="none" xmlns="http://www.w3.org/2000/svg">
<path d="M27.5 53.2812C41.7386 53.2812 53.2812 41.7386 53.2812 27.5C53.2812 13.2614 41.7386 1.71875 27.5 1.71875C13.2614 1.71875 1.71875 13.2614 1.71875 27.5C1.71875 41.7386 13.2614 53.2812 27.5 53.2812Z" fill="#FDCA47"/>
<path d="M44.4298 7.99231C48.3829 12.547 50.7032 18.3907 50.7032 24.922C50.7032 39.1876 39.1876 50.7032 24.922 50.7032C18.4767 50.7032 12.547 48.297 7.99231 44.4298C12.7189 49.8439 19.7657 53.2814 27.5001 53.2814C41.7657 53.2814 53.2814 41.7657 53.2814 27.5001C53.2814 19.7657 49.8439 12.7189 44.4298 7.99231Z" fill="#F9B700"/>
<path d="M5.49999 17.617C4.55468 20.7967 11.1719 9.45292 21.4844 5.24198C26.4687 3.17948 9.62499 3.95291 5.49999 17.617Z" fill="#FFE8BB"/>
<path d="M36.0076 48.2109L25.6951 47.6094C24.5779 47.5234 24.7498 44.0859 25.867 44.1719L36.1795 44.7734C37.2967 44.8594 37.1248 48.2109 36.0076 48.2109Z" fill="#302C3B"/>
<path d="M35.1485 30.1641C38.4141 37.2109 45.6328 37.5547 49.6719 30.9375C49.8438 30.5937 49.4141 30.4219 48.8125 29.9922C45.0313 32.6562 39.1875 32.0547 36.0078 29.3047C35.4922 29.7344 34.9766 29.8203 35.1485 30.1641Z" fill="#302C3B"/>
<path d="M14.4373 28.7891C17.1014 36.0078 24.3201 36.9531 28.8748 30.6797C29.1326 30.3359 28.617 30.1641 28.1014 29.6484C24.1482 31.9687 18.3045 30.9375 15.3826 28.0156C14.7811 28.3594 14.2654 28.4453 14.4373 28.7891Z" fill="#302C3B"/>
<path d="M46.8362 21.3985C42.3674 20.9688 37.7268 24.4922 35.6643 26.8125C35.2346 27.3281 35.7503 28.2735 36.18 27.9297C39.3596 25.1797 43.6565 23.461 47.7815 23.5469C48.3831 23.5469 47.5237 21.4844 46.8362 21.3985Z" fill="#917524"/>
<path d="M18.8203 19.5939C23.6328 19.5939 27.6718 23.8048 29.5625 26.6407C29.9922 27.2423 29.3906 28.7032 29.0468 28.2736C25.9531 24.8361 21.7422 22.2579 17.2734 21.9142C16.7578 21.8282 18.1328 19.5939 18.8203 19.5939Z" fill="#917524"/>
<path d="M29.3907 31.8829C28.7891 31.3673 26.0391 31.6251 27.3282 34.9767C26.2969 34.4611 23.2891 34.8048 25.8672 38.1564C27.3282 40.047 30.5078 44.3438 34.461 47.9532C40.1328 53.1095 49.4141 49.0704 47.5235 41.8517C45.375 33.9454 48.5547 31.797 47.2657 31.5392C44.1719 30.8517 42.3672 35.8361 42.3672 35.8361C37.2969 28.1876 34.1172 25.0939 32.8282 29.1329C29.8203 27.5001 28.1016 29.6486 29.3907 31.8829Z" fill="white"/>
<path d="M28.4452 31.1093C27.242 30.6796 25.6092 32.2265 26.4686 34.289C25.1795 34.0312 23.3748 36.1796 25.0936 38.3281C28.9608 43.3124 34.203 49.414 37.6405 50.5312C40.5624 51.4765 44.5155 50.4452 46.8358 48.2109C48.8983 46.0624 48.9842 43.2265 47.867 39.9609C46.3202 35.4062 50.0155 31.3671 47.3514 30.8515C43.9139 30.164 42.453 34.3749 42.453 34.3749C42.453 34.3749 39.0155 29.5624 37.1249 27.6718C35.4061 25.8671 32.1405 26.2968 32.4842 28.6171C30.5936 26.8124 27.242 28.1874 28.4452 31.1093ZM32.828 30.164C35.0624 32.6562 38.0702 36.0937 38.0702 36.0937C38.0702 36.0937 35.2342 31.7968 33.7733 29.4765C32.828 28.0156 34.7186 27.1562 35.9217 28.2734C38.9295 31.1952 42.7108 36.8671 42.7108 36.8671C42.7108 36.8671 43.5702 32.2265 46.2342 31.7968C48.4686 31.4531 44.8592 35.664 46.578 40.3046C49.4139 47.7812 41.9373 50.703 37.7264 49.328C34.8045 48.3827 30.3358 42.9687 26.0389 37.6405C24.8358 36.0937 26.6405 34.5468 28.0155 35.8359C29.7342 37.4687 32.9139 40.3906 32.9139 40.3906C32.9139 40.3906 29.6483 36.7812 28.2733 35.0624C26.2967 32.6562 28.703 31.539 30.078 32.8281C32.0545 34.8046 35.3202 38.2421 35.3202 38.2421C35.3202 38.2421 31.5389 33.1718 30.078 31.3671C28.3592 29.5624 30.5936 27.7577 32.828 30.164Z" fill="#99A8AE"/>
</svg>
