<svg width="55" height="55" viewBox="0 0 55 55" fill="none" xmlns="http://www.w3.org/2000/svg">
<g clip-path="url(#clip0)">
<path d="M27.5 53.2812C41.7386 53.2812 53.2812 41.7386 53.2812 27.5C53.2812 13.2614 41.7386 1.71875 27.5 1.71875C13.2614 1.71875 1.71875 13.2614 1.71875 27.5C1.71875 41.7386 13.2614 53.2812 27.5 53.2812Z" fill="#FDCA47"/>
<path d="M44.4298 7.99231C48.3829 12.547 50.7032 18.3907 50.7032 24.922C50.7032 39.1876 39.1876 50.7032 24.922 50.7032C18.4767 50.7032 12.547 48.297 7.99231 44.4298C12.7189 49.8439 19.7657 53.2814 27.5001 53.2814C41.7657 53.2814 53.2814 41.7657 53.2814 27.5001C53.2814 19.7657 49.8439 12.7189 44.4298 7.99231Z" fill="#F9B700"/>
<path d="M12.4613 9.71237C8.16444 5.4155 0.000374317 9.36861 1.46131 15.8139C2.49256 20.1108 7.13319 22.0014 16.4144 26.4702C22.6879 18.3061 26.0394 14.5249 25.0082 10.228C23.4613 3.86861 14.3519 3.95456 12.4613 9.71237Z" fill="#E81C27"/>
<path d="M18.6494 5.41418C20.626 6.01575 22.2588 7.47668 22.7744 9.88293C23.7197 13.7501 20.2822 19.3361 16.9307 24.2345C15.8994 25.7814 16.0713 25.5236 11.8604 24.3204C12.4619 24.5782 15.7275 26.2111 16.3291 26.4689C22.6025 18.3048 25.9541 14.5236 24.9229 10.2267C24.2354 6.96105 21.3994 5.41418 18.6494 5.41418Z" fill="#C21413"/>
<path d="M2.6647 14.5238C3.18032 15.8129 5.07095 12.6332 7.13345 9.71136C8.42251 7.90667 1.11782 10.5707 2.6647 14.5238Z" fill="#F46C60"/>
<path d="M13.5785 9.96905C13.8363 10.7425 14.9535 8.85186 16.1567 7.13311C16.9301 6.10186 12.6332 7.73467 13.5785 9.96905Z" fill="#F46C60"/>
<path d="M29.9922 10.228C28.9609 14.5249 32.3125 18.3061 38.5859 26.4702C47.8672 22.0014 52.5078 20.1108 53.5391 15.8139C55.0859 9.45455 46.8359 5.4155 42.5391 9.71237C40.5625 3.95456 31.4531 3.86861 29.9922 10.228Z" fill="#E81C27"/>
<path d="M29.9922 10.2267C28.9609 14.5236 32.3125 18.3048 38.5859 26.4689C39.1875 26.2111 42.4531 24.5782 43.0547 24.3204C38.8438 25.5236 39.0156 25.7814 37.9844 24.2345C34.7187 19.422 31.2812 13.8361 32.1406 9.88293C32.7422 7.47668 34.375 6.01575 36.2656 5.41418C33.5156 5.41418 30.7656 6.96105 29.9922 10.2267Z" fill="#C21413"/>
<path d="M47.867 9.71136C49.9295 12.5473 51.8201 15.8129 52.3357 14.5238C53.8826 10.5707 46.5779 7.90667 47.867 9.71136Z" fill="#F46C60"/>
<path d="M38.758 7.21891C39.9611 8.93766 41.0783 10.8283 41.3361 10.0548C42.2814 7.73454 37.9846 6.10172 38.758 7.21891Z" fill="#F46C60"/>
<path d="M43.3123 32.6561C43.3123 31.8827 42.8826 30.9374 41.5935 30.6796C38.2419 30.078 33.3435 29.3905 26.9841 29.3905C20.6248 29.3905 15.7263 30.078 12.3748 30.6796C11.0857 30.9374 10.656 31.8827 10.656 32.6561C10.656 39.6171 16.0701 46.578 26.9841 46.578C37.8982 46.578 43.3123 39.6171 43.3123 32.6561Z" fill="#302C3B"/>
<path d="M28.531 36.2655C28.0154 36.2655 27.242 36.6952 27.5857 37.7264C27.7576 38.242 28.617 38.9295 28.617 39.7889C28.617 41.5077 25.3513 41.5077 25.3513 39.7889C25.3513 38.9295 26.2107 38.242 26.3826 37.7264C26.6404 36.6952 25.867 36.2655 25.4373 36.2655C24.0623 36.2655 21.8279 37.5546 21.8279 39.703C21.8279 42.1093 24.1482 43.9999 26.9841 43.9999C29.8201 43.9999 32.1404 42.0233 32.1404 39.703C32.1404 37.5546 29.906 36.2655 28.531 36.2655Z" fill="#1A1626"/>
<path d="M20.1091 43.2266C22.0857 44.1719 24.406 44.6875 26.9841 44.6875C29.5623 44.6875 31.8826 44.1719 33.8591 43.2266C31.9685 42.2812 29.6482 41.6797 26.9841 41.6797C24.3201 41.6797 21.9998 42.1953 20.1091 43.2266Z" fill="#F46C60"/>
<path d="M39.4444 32.828C37.296 32.4843 32.7413 31.9686 26.9835 31.9686C21.2257 31.9686 16.671 32.5702 14.5225 32.828C13.2335 32.9999 13.1475 33.5155 13.2335 34.1171C13.3194 34.5468 13.4053 34.9764 13.4913 35.492C13.6632 36.0936 13.7491 36.1796 14.6944 36.1796C16.585 36.1796 37.21 36.1796 39.1007 36.1796C40.1319 36.1796 40.2178 36.0077 40.3038 35.492C40.3897 34.9764 40.4757 34.5468 40.5616 34.1171C40.8194 33.5155 40.7335 33.0858 39.4444 32.828Z" fill="white"/>
</g>
<defs>
<clipPath id="clip0">
<rect width="55" height="55" fill="white"/>
</clipPath>
</defs>
</svg>
